<?xml version="1.0" standalone="no"?>
<!DOCTYPE svg PUBLIC "-//W3C//DTD SVG 20010904//EN"
 "http://www.w3.org/TR/2001/REC-SVG-20010904/DTD/svg10.dtd">
<svg version="1.0" xmlns="http://www.w3.org/2000/svg"
 width="1400.000000pt" height="1400.000000pt" viewBox="0 0 1400.000000 1400.000000"
 preserveAspectRatio="xMidYMid meet">

<g transform="translate(0.000000,1400.000000) scale(0.100000,-0.100000)"
fill="#000000" stroke="none">
<path d="M6705 13784 c-16 -3 -124 -21 -240 -41 -179 -30 -240 -36 -415 -40
-246 -5 -279 -13 -350 -84 -115 -115 -186 -370 -161 -576 30 -242 129 -443
302 -608 84 -80 186 -151 266 -186 216 -95 480 -136 745 -118 145 10 194 19
352 65 355 104 464 100 574 -20 50 -54 77 -111 117 -241 15 -49 47 -135 71
-191 66 -152 74 -194 74 -379 0 -169 4 -185 45 -185 27 0 54 29 100 108 48 83
129 163 201 198 208 102 427 -72 412 -327 -6 -95 -49 -194 -104 -235 -19 -15
-32 -29 -30 -32 3 -3 26 12 51 33 25 20 48 35 51 33 4 -4 -34 -41 -195 -191
-106 -99 -125 -192 -146 -740 -8 -204 -17 -391 -21 -416 -5 -42 -22 -493 -19
-499 1 -1 22 5 46 13 25 9 93 18 156 21 119 5 164 -2 392 -64 97 -26 106 -31
114 -58 6 -16 9 -204 8 -434 -2 -438 -6 -479 -63 -625 l-24 -59 -99 -1 c-89 0
-106 -3 -157 -28 -169 -83 -291 -282 -368 -599 -28 -116 -102 -490 -97 -494 1
-1 12 -5 24 -8 26 -8 19 -34 78 264 71 360 127 521 229 657 30 39 51 75 48 79
-4 4 -2 4 5 1 6 -4 34 8 62 27 58 39 145 61 203 52 111 -18 204 -102 233 -211
42 -153 -14 -594 -119 -937 -19 -62 -37 -120 -41 -129 -4 -12 1 -18 17 -22 12
-4 26 -3 29 1 7 8 48 133 73 223 86 308 132 745 93 879 -21 72 -65 140 -113
176 -22 15 -42 31 -47 34 -4 4 4 38 19 76 65 170 66 174 70 601 2 216 -1 414
-5 440 -5 27 -8 50 -6 52 10 9 307 -58 430 -97 215 -70 359 -175 460 -337 93
-148 155 -331 240 -698 31 -133 75 -314 100 -402 41 -149 120 -465 180 -720
42 -178 142 -650 164 -775 73 -421 60 -585 -89 -1060 -160 -513 -223 -738
-249 -900 -41 -243 -75 -359 -128 -429 l-26 -33 12 -347 c7 -190 16 -584 21
-876 5 -291 12 -715 16 -941 l7 -412 51 31 c148 88 325 210 319 220 -3 6 -1 7
6 3 16 -10 277 187 471 356 249 216 632 621 614 649 -4 8 -3 9 4 5 23 -14 238
281 390 534 273 453 502 1014 672 1650 300 1119 350 2239 139 3100 -204 833
-498 1529 -886 2099 -133 196 -193 272 -205 265 -7 -4 -8 -3 -4 5 21 33 -404
494 -744 806 -323 297 -700 595 -1025 812 -302 201 -541 333 -872 484 l-62 28
1 183 c1 209 -13 350 -47 483 -79 311 -231 501 -455 570 -40 12 -117 19 -280
25 -289 10 -290 10 -610 201 -223 132 -409 205 -630 245 -83 16 -365 27 -425
18z"/>
<path d="M5795 12253 c-108 -26 -344 -96 -490 -145 -710 -239 -1352 -596
-1905 -1057 -722 -603 -1483 -1659 -1917 -2661 -29 -69 -58 -134 -63 -145 -44
-97 -152 -396 -218 -605 -202 -643 -295 -1269 -279 -1875 10 -342 41 -582 113
-870 123 -487 340 -963 642 -1405 122 -179 163 -231 175 -223 6 3 7 1 3 -6
-10 -15 178 -249 347 -431 543 -588 1203 -1117 2047 -1642 249 -155 333 -203
550 -312 202 -103 409 -194 595 -263 66 -24 137 -51 158 -59 20 -7 39 -14 41
-14 2 0 6 186 9 412 3 227 11 570 17 762 l13 348 -42 37 c-49 43 -65 80 -82
189 -12 79 -13 82 -26 58 -8 -14 -18 -26 -23 -26 -27 0 -661 250 -1445 570
-286 117 -578 236 -650 265 -282 114 -283 115 -224 276 39 106 105 290 209
584 123 349 231 641 305 830 36 94 89 234 116 313 67 196 95 245 155 283 41
25 118 25 212 -1 81 -22 436 -163 647 -255 86 -38 128 -55 136 -55 5 0 9 51 9
113 0 183 23 465 100 1252 43 435 63 672 80 920 32 485 118 804 286 1061 61
95 244 270 368 352 119 79 294 168 396 202 62 21 349 90 373 90 6 0 -7 -19
-30 -42 -78 -83 -119 -157 -155 -283 -18 -61 -21 -108 -25 -364 -5 -301 5
-559 33 -854 15 -153 15 -169 1 -185 -76 -83 -65 -277 19 -353 114 -103 324
-63 396 74 86 165 -86 366 -293 343 -45 -5 -59 -4 -59 6 0 7 -7 81 -15 163
-43 449 -45 1012 -5 1160 29 109 83 196 177 285 76 73 80 76 168 98 106 26
124 27 131 7 4 -8 16 -15 29 -15 13 0 49 -14 80 -30 32 -17 60 -28 62 -26 3 3
-2 112 -11 243 -9 132 -16 275 -16 319 l0 80 -91 22 c-236 58 -445 170 -623
337 -26 24 -53 42 -59 38 -5 -3 -7 -1 -3 5 3 6 -17 37 -45 69 -114 128 -227
334 -273 495 -54 189 -79 542 -74 1038 2 235 -1 340 -11 413 -8 53 -17 96 -20
96 -3 -1 -15 -3 -26 -6z m795 -4863 c30 -10 59 -16 64 -13 5 3 6 1 2 -5 -4 -6
5 -19 19 -28 64 -42 83 -146 41 -218 -34 -58 -91 -88 -169 -89 -122 -3 -187
62 -187 187 0 98 39 158 115 177 46 11 56 10 115 -11z"/>
<path d="M7050 3524 c0 -66 -5 -270 -10 -454 -5 -184 -16 -805 -25 -1380 -8
-575 -17 -1131 -21 -1237 l-7 -191 79 -8 c124 -11 593 -9 769 5 88 7 228 21
310 32 83 10 153 19 156 19 3 0 9 395 13 877 3 483 9 1225 12 1648 l7 770
-379 1 c-336 1 -541 9 -821 30 l-83 7 0 -119z"/>
</g>
</svg>
